<?xml version="1.0" standalone="no"?>
<!DOCTYPE svg PUBLIC "-//W3C//DTD SVG 20010904//EN"
 "http://www.w3.org/TR/2001/REC-SVG-20010904/DTD/svg10.dtd">
<svg version="1.0" xmlns="http://www.w3.org/2000/svg"
 width="2000.000000pt" height="2000.000000pt" viewBox="0 0 2000.000000 2000.000000"
 preserveAspectRatio="xMidYMid meet">
<metadata>
Created by potrace 1.14, written by Peter Selinger 2001-2017
</metadata>
<g transform="translate(0.000000,2000.000000) scale(0.100000,-0.100000)"
fill="#000000" stroke="none">
<path d="M7560 19979 c-460 -96 -815 -473 -881 -934 -6 -44 -10 -893 -10
-2334 l0 -2265 33 -29 c41 -35 60 -52 228 -203 124 -110 156 -139 216 -191 11
-10 56 -50 100 -89 43 -39 106 -95 139 -125 33 -29 65 -58 71 -63 12 -12 113
-102 205 -182 30 -27 138 -123 240 -214 234 -209 225 -202 409 -365 85 -76
173 -154 195 -174 22 -20 61 -54 86 -76 25 -22 81 -72 124 -111 44 -39 123
-109 175 -155 52 -46 104 -93 116 -104 17 -17 91 -82 177 -157 10 -9 53 -48
95 -85 41 -37 83 -75 92 -83 23 -20 147 -130 175 -155 77 -69 163 -146 181
-162 56 -48 173 -153 218 -195 28 -26 54 -48 57 -48 4 0 58 46 120 102 63 55
150 133 194 172 44 39 102 91 130 116 68 61 64 58 135 120 34 30 74 66 89 80
14 14 62 57 106 95 44 39 82 72 85 75 3 3 109 97 235 209 127 112 235 209 240
215 6 6 66 60 135 121 69 60 127 112 130 115 3 3 129 116 280 250 151 134 277
247 280 250 3 3 46 41 95 85 50 43 106 93 125 110 19 18 64 58 100 90 36 32
83 74 105 94 22 20 121 108 220 196 99 87 187 166 196 174 13 14 97 88 173
154 12 10 53 47 92 83 l71 64 0 2242 c0 1234 -4 2275 -8 2313 -28 258 -135
480 -319 666 -163 164 -342 261 -575 309 -87 18 -176 19 -2435 19 -2300 0
-2347 -1 -2440 -20z"/>
<path d="M925 13394 c-427 -72 -774 -391 -893 -821 l-27 -98 -2 -2365 c-3
-2598 -6 -2425 58 -2615 86 -253 263 -467 504 -607 97 -56 235 -106 375 -134
19 -4 1064 -8 2322 -9 l2288 -3 77 86 c76 84 155 171 217 242 54 60 360 404
371 416 6 6 42 47 80 90 39 43 90 101 115 129 25 27 63 70 84 95 22 25 74 83
116 130 42 47 94 105 116 130 21 24 48 54 59 66 11 11 47 52 80 89 33 38 81
91 106 119 25 28 108 121 184 206 119 135 248 279 280 314 6 6 28 31 49 56 42
48 136 153 281 315 50 55 142 159 205 230 63 72 117 132 120 135 3 3 61 68
130 145 68 77 129 145 135 151 9 10 97 109 148 167 9 11 17 23 17 26 0 6 -76
92 -189 217 -44 48 -157 175 -193 216 -20 23 -130 147 -207 233 -71 79 -71 79
-401 450 -156 176 -287 322 -290 325 -3 3 -116 129 -250 280 -135 151 -249
280 -255 286 -5 6 -39 44 -75 84 -36 40 -70 78 -75 84 -6 6 -103 115 -215 241
-112 127 -209 235 -215 241 -5 6 -39 44 -75 84 -111 126 -163 185 -169 190 -4
3 -56 61 -116 130 -61 68 -119 134 -130 146 -11 11 -40 44 -65 72 l-45 52
-2275 -1 c-1862 -1 -2290 -3 -2355 -15z"/>
<path d="M14414 13368 c-22 -24 -76 -83 -119 -133 -44 -49 -82 -92 -85 -95 -3
-3 -39 -43 -80 -90 -41 -47 -77 -87 -80 -90 -3 -3 -39 -43 -80 -90 -41 -46
-94 -105 -117 -130 -23 -25 -50 -54 -60 -66 -59 -69 -230 -261 -243 -274 -3
-3 -59 -66 -125 -140 -66 -74 -124 -140 -130 -146 -68 -75 -159 -177 -186
-208 -19 -22 -43 -49 -54 -61 -11 -11 -36 -39 -55 -61 -121 -136 -335 -377
-360 -404 -13 -14 -81 -91 -185 -209 -16 -19 -37 -41 -45 -50 -9 -9 -49 -54
-90 -101 -41 -47 -80 -89 -86 -95 -6 -5 -62 -68 -125 -140 -62 -71 -135 -152
-160 -180 -26 -27 -65 -72 -88 -98 -22 -26 -58 -67 -79 -90 -22 -23 -99 -109
-171 -191 l-132 -148 28 -31 c15 -17 35 -38 43 -47 8 -8 62 -68 120 -134 137
-154 134 -151 210 -236 36 -40 73 -82 82 -92 9 -11 48 -54 85 -96 37 -41 76
-84 86 -96 10 -12 31 -35 45 -51 15 -17 61 -68 102 -115 41 -46 84 -94 95
-106 33 -36 76 -84 150 -169 39 -44 73 -82 76 -85 6 -6 147 -163 370 -414 20
-23 74 -84 120 -136 46 -52 91 -102 99 -110 8 -8 65 -71 125 -140 61 -68 117
-132 125 -140 16 -17 129 -145 162 -182 19 -22 142 -160 163 -182 6 -6 44 -49
85 -96 41 -47 90 -103 110 -125 58 -63 140 -155 204 -229 33 -37 71 -80 85
-95 53 -57 164 -182 182 -205 l18 -23 2248 0 c1237 0 2282 4 2323 8 74 9 88
12 205 45 323 93 613 378 723 710 55 164 51 2 52 2560 0 2069 -2 2371 -15
2441 -85 450 -447 806 -901 888 -67 12 -429 14 -2355 15 l-2276 0 -39 -42z"/>
<path d="M9909 8598 c-52 -45 -96 -85 -99 -88 -3 -3 -45 -41 -95 -85 -49 -44
-92 -82 -95 -85 -3 -3 -86 -77 -185 -165 -99 -88 -182 -162 -185 -165 -3 -3
-25 -23 -50 -45 -25 -22 -81 -72 -125 -111 -44 -39 -127 -113 -185 -165 -58
-51 -107 -95 -110 -98 -3 -4 -41 -38 -84 -76 -44 -39 -87 -77 -96 -85 -9 -8
-50 -45 -91 -81 -119 -106 -283 -252 -295 -263 -6 -6 -26 -24 -45 -40 -44 -38
-202 -179 -209 -186 -3 -3 -66 -59 -140 -125 -74 -66 -137 -122 -140 -125 -3
-3 -66 -59 -140 -125 -74 -66 -153 -136 -175 -157 -22 -20 -51 -46 -65 -58
-39 -33 -162 -143 -180 -160 -9 -8 -72 -64 -140 -125 -163 -144 -193 -170
-257 -230 l-54 -50 0 -2270 c0 -2479 -3 -2344 57 -2522 54 -161 138 -295 263
-422 47 -48 102 -99 121 -113 93 -71 235 -141 380 -186 131 -41 106 -41 2515
-41 2510 1 2385 -2 2567 59 284 95 523 306 653 575 60 125 86 217 104 365 4
36 8 1077 8 2313 0 2108 -1 2249 -17 2260 -10 7 -42 35 -72 62 -30 28 -90 82
-133 120 -44 39 -102 91 -130 116 -27 25 -63 57 -80 72 -16 14 -39 34 -51 44
-20 18 -145 128 -188 168 -13 11 -56 50 -97 86 -174 155 -578 516 -625 558
-28 25 -84 75 -125 111 -40 36 -96 86 -124 111 -27 25 -133 119 -235 209 -102
91 -187 167 -190 170 -3 3 -106 95 -230 205 -124 110 -243 216 -265 236 -22
20 -89 80 -150 134 -60 54 -144 128 -185 165 -41 37 -142 127 -225 200 -82 73
-164 146 -181 162 l-32 30 -93 -84z"/>
</g>
</svg>
